<?xml version="1.0" encoding="UTF-8"?>
<!DOCTYPE svg PUBLIC "-//W3C//DTD SVG 1.1//EN" "http://www.w3.org/Graphics/SVG/1.1/DTD/svg11.dtd">
<!-- Creator: CorelDRAW 2019 (64-Bit) -->
<svg xmlns="http://www.w3.org/2000/svg" xml:space="preserve" width="57.9594mm" height="18.596mm" version="1.1"
     style="shape-rendering:geometricPrecision; text-rendering:geometricPrecision; image-rendering:optimizeQuality; fill-rule:evenodd; clip-rule:evenodd"
     viewBox="0 0 3103.17 995.64"
>
 <defs>
  <style type="text/css">
   <![CDATA[
    .fil1 {fill:#9E298A}
    .fil0 {fill:#FEFEFE;fill-rule:nonzero}
   ]]>
  </style>
 </defs>
    <g id="Layer_x0020_1">
  <metadata id="CorelCorpID_0Corel-Layer"/>
        <g id="logo_x0020_new.cdr">
   <path class="fil0"
         d="M1747.45 239.69l0 114.32c0,48.26 73.24,49.37 73.24,0.54l0 -114.86 125.39 -181.44c28.86,-37.16 -32.73,-77.68 -62.14,-37.16l-98.21 144.8 -97.1 -144.8c-28.85,-43.3 -88.78,1.67 -62.15,37.16l120.96 181.44z"/>
            <path class="fil0"
                  d="M1318.91 370.11l23.86 -48.84 204.75 0 24.41 48.84c19.97,43.26 87.12,8.87 64.36,-34.42l-156.47 -311.28c-13.87,-30.52 -53.82,-29.4 -68.79,0l-159.25 311.28c-11.09,23.31 0,43.28 17.75,53.27 19.98,3.88 40.51,0 49.39,-18.85zm58.26 -122.08l68.25 -137.05 62.7 137.05 -130.94 0z"/>
            <path class="fil0"
                  d="M1023.74 72.69c156.47,0 149.81,248.58 0,248.58l-92.12 0 0 -248.58 92.12 0zm4.99 316.27c243.03,0 248.57,-383.96 -4.99,-383.96l-127.06 0c-18.32,0 -38.29,14.43 -38.29,34.4l0 315.17c0,24.41 19.97,34.4 38.29,34.4l132.05 0z"/>
            <path class="fil0"
                  d="M155.92 261.9c18.31,24.41 43.28,24.41 63.25,0l92.11 -116.52 0 205.3c0,24.41 15.53,38.29 35.51,38.29 17.75,0 33.29,-13.87 33.29,-38.29l0 -312.39c0,-38.29 -44.94,-47.16 -63.26,-24.41l-126.51 170.9 -122.07 -164.8c-9.43,-10.53 -18.86,-19.97 -34.96,-19.97 -8.88,0 -33.29,9.44 -33.29,38.29l0 312.39c0,24.41 15.54,38.29 33.29,38.29 19.98,0 39.95,-13.87 39.95,-38.29l0 -205.3 82.68 116.52z"/>
            <path class="fil0"
                  d="M587.87 239.69l0 114.32c0,48.26 73.24,49.37 73.24,0.54l0 -114.86 125.39 -181.44c28.86,-37.16 -32.73,-77.68 -62.14,-37.16l-98.21 144.8 -97.1 -144.8c-28.85,-43.3 -88.78,1.67 -62.15,37.16l120.96 181.44z"/>
  </g>
        <path class="fil0"
              d="M190.67 570.52c34.08,0 63.68,5.68 88.79,17.04 25.11,11.36 44.43,27.49 57.99,48.38 13.56,20.89 20.34,45.63 20.34,74.21 0,28.22 -6.78,52.87 -20.34,73.94 -13.56,21.07 -32.89,37.2 -57.99,48.38 -25.11,11.17 -54.7,16.76 -88.79,16.76l-77.51 0 0 106.1 -89.06 0 0 -384.82 166.57 0zm-4.95 206.15c26.75,0 47.09,-5.77 61.02,-17.31 13.93,-11.55 20.89,-27.95 20.89,-49.2 0,-21.62 -6.96,-38.21 -20.89,-49.75 -13.93,-11.54 -34.27,-17.32 -61.02,-17.32l-72.56 0 0 133.59 72.56 0zm494.22 96.2l-178.66 0 -34.08 82.46 -91.25 0 171.52 -384.82 87.96 0 172.07 384.82 -93.45 0 -34.08 -82.46zm-28.03 -67.62l-61.02 -147.33 -61.03 147.33 122.05 0zm440.89 150.08l-74.21 -107.2 -4.4 0 -77.51 0 0 107.2 -89.06 0 0 -384.82 166.57 0c34.08,0 63.68,5.68 88.79,17.04 25.11,11.36 44.43,27.49 57.99,48.38 13.56,20.89 20.34,45.63 20.34,74.21 0,28.59 -6.87,53.24 -20.61,73.94 -13.74,20.71 -33.26,36.56 -58.55,47.55l86.31 123.69 -95.66 0zm-1.65 -245.18c0,-21.62 -6.96,-38.21 -20.89,-49.75 -13.93,-11.54 -34.27,-17.32 -61.02,-17.32l-72.56 0 0 134.14 72.56 0c26.75,0 47.09,-5.87 61.02,-17.59 13.93,-11.73 20.89,-28.22 20.89,-49.48zm240.24 -67.07l-123.14 0 0 -72.56 335.34 0 0 72.56 -123.14 0 0 312.25 -89.06 0 0 -312.25zm494.22 175.92l0 136.34 -89.06 0 0 -137.43 -148.98 -247.38 94.55 0 102.8 170.97 102.8 -170.97 87.41 0 -149.53 248.48z"/>
        <g id="_2133163918176">
   <path class="fil1"
         d="M2605.35 0l0.01 0c273.79,0 497.81,224.01 497.81,497.81l0 0.02c0,273.79 -224.01,497.81 -497.81,497.81l-0.01 0c-273.79,0 -497.81,-224.01 -497.81,-497.81l0 -0.02c0,-273.79 224.01,-497.81 497.81,-497.81z"/>
            <path class="fil0"
                  d="M2422.3 358.39l0 309.17 -71.55 0 0 -251.76 -61.84 0 0 -57.42 133.39 0zm265.45 146.64c15.31,7.66 27.02,17.67 35.12,30.04 8.1,12.36 12.14,26.65 12.14,42.84 0,19.14 -5.45,35.85 -16.34,50.13 -10.9,14.28 -26.21,25.32 -45.93,33.13 -19.73,7.8 -42.55,11.7 -68.46,11.7 -25.91,0 -48.66,-3.9 -68.24,-11.7 -19.58,-7.81 -34.74,-18.85 -45.49,-33.13 -10.75,-14.28 -16.12,-30.99 -16.12,-50.13 0,-16.2 4.05,-30.48 12.15,-42.84 8.1,-12.37 19.65,-22.38 34.67,-30.04 -11.48,-7.07 -20.32,-15.98 -26.5,-26.72 -6.18,-10.75 -9.27,-23.04 -9.27,-36.88 0,-17.96 5.01,-33.57 15.02,-46.82 10.01,-13.25 24,-23.48 41.96,-30.69 17.96,-7.22 38.57,-10.82 61.83,-10.82 23.56,0 44.39,3.6 62.5,10.82 18.11,7.21 32.17,17.44 42.18,30.69 10.01,13.25 15.02,28.86 15.02,46.82 0,13.83 -3.09,26.13 -9.27,36.88 -6.18,10.75 -15.17,19.65 -26.95,26.72zm-83.47 -99.38c-14.43,0 -25.99,3.46 -34.67,10.38 -8.68,6.92 -13.03,16.42 -13.03,28.49 0,11.78 4.27,21.05 12.81,27.82 8.54,6.77 20.17,10.16 34.89,10.16 14.72,0 26.5,-3.39 35.33,-10.16 8.83,-6.77 13.25,-16.05 13.25,-27.82 0,-12.07 -4.42,-21.57 -13.25,-28.49 -8.83,-6.92 -20.61,-10.38 -35.33,-10.38zm0 214.66c17.96,0 32.17,-4.05 42.62,-12.15 10.45,-8.1 15.68,-18.92 15.68,-32.46 0,-13.55 -5.23,-24.29 -15.68,-32.24 -10.46,-7.95 -24.66,-11.92 -42.62,-11.92 -17.67,0 -31.65,3.97 -41.96,11.92 -10.31,7.95 -15.46,18.7 -15.46,32.24 0,13.84 5.15,24.74 15.46,32.69 10.31,7.95 24.29,11.92 41.96,11.92zm383.82 -80.39l-76.85 0 0 75.09 -56.98 0 0 -75.09 -76.41 0 0 -53.88 76.41 0 0 -75.09 56.98 0 0 75.09 76.85 0 0 53.88z"/>
  </g>
 </g>
</svg>
